<?xml version="1.0" standalone="no"?>
<!DOCTYPE svg PUBLIC "-//W3C//DTD SVG 20010904//EN"
 "http://www.w3.org/TR/2001/REC-SVG-20010904/DTD/svg10.dtd">
<svg version="1.0" xmlns="http://www.w3.org/2000/svg"
 width="96.000000pt" height="96.000000pt" viewBox="0 0 96.000000 96.000000"
 preserveAspectRatio="xMidYMid meet">
<metadata>
Created by potrace 1.14, written by Peter Selinger 2001-2017
</metadata>
<g transform="translate(0.000000,96.000000) scale(0.100000,-0.100000)"
fill="#000000" stroke="none">
<path d="M520 870 c-29 -29 -30 -73 -1 -103 54 -56 144 1 119 76 -18 49 -81
64 -118 27z m78 -58 c-4 -22 -46 -28 -54 -8 -4 9 -1 23 6 31 16 19 53 1 48
-23z"/>
<path d="M304 825 c-16 -16 -36 -25 -55 -25 -35 0 -89 -47 -89 -78 0 -10 -11
-24 -24 -30 -35 -16 -58 -55 -58 -98 0 -20 -9 -51 -19 -68 -24 -40 -24 -100 0
-140 12 -19 20 -48 19 -73 -1 -56 28 -103 78 -128 23 -11 58 -35 78 -53 30
-26 45 -32 82 -32 57 0 101 25 124 70 16 31 17 66 16 332 l-1 296 -24 26 c-34
36 -92 36 -127 1z m-63 -172 c41 -19 54 -53 19 -53 -44 0 -89 37 -74 61 7 12
12 12 55 -8z m-51 -103 c0 -15 -7 -20 -29 -20 -16 0 -31 6 -34 14 -8 19 1 26
35 26 21 0 28 -5 28 -20z m116 -99 c-3 -25 -14 -57 -24 -71 -24 -32 -75 -62
-94 -55 -24 9 -17 33 13 45 36 15 63 57 61 94 -3 38 15 61 35 44 11 -8 13 -24
9 -57z"/>
<path d="M733 780 c-28 -12 -46 -46 -40 -77 3 -18 -4 -33 -26 -56 -28 -28 -38
-32 -89 -33 -63 0 -74 -5 -65 -29 5 -11 22 -15 74 -15 64 0 69 2 105 37 31 31
45 37 72 35 60 -6 98 70 59 116 -21 25 -60 35 -90 22z m56 -54 c9 -11 8 -18
-5 -30 -22 -22 -38 -15 -42 17 -3 21 1 27 16 27 11 0 25 -6 31 -14z"/>
<path d="M804 548 c-10 -6 -25 -18 -32 -27 -10 -13 -34 -16 -128 -17 -117 -1
-148 -10 -126 -36 7 -9 43 -13 127 -12 92 1 118 -2 122 -13 8 -21 55 -41 82
-34 13 4 33 18 44 33 17 23 18 30 7 62 -6 20 -12 36 -13 36 -1 0 -16 4 -33 9
-19 5 -38 5 -50 -1z m54 -66 c4 -28 -24 -40 -45 -19 -14 13 -14 19 -3 32 18
22 44 15 48 -13z"/>
<path d="M513 374 c-9 -23 12 -32 67 -29 43 2 53 -1 84 -30 24 -22 34 -38 30
-49 -17 -45 35 -103 82 -92 14 4 33 15 44 26 44 44 7 120 -59 120 -29 0 -44 7
-71 35 -32 33 -37 35 -102 35 -54 0 -70 -3 -75 -16z m276 -113 c8 -14 7 -22
-4 -31 -19 -16 -45 -6 -45 18 0 36 33 45 49 13z"/>
<path d="M521 192 c-50 -49 -19 -122 51 -122 67 0 94 81 42 128 -33 29 -60 28
-93 -6z m76 -38 c3 -8 -2 -23 -11 -32 -15 -15 -17 -15 -32 0 -21 21 -11 48 16
48 11 0 23 -7 27 -16z"/>
</g>
</svg>
