<?xml version="1.0" standalone="no"?>
<!DOCTYPE svg PUBLIC "-//W3C//DTD SVG 20010904//EN"
 "http://www.w3.org/TR/2001/REC-SVG-20010904/DTD/svg10.dtd">
<svg version="1.0" xmlns="http://www.w3.org/2000/svg"
 width="603.000000pt" height="603.000000pt" viewBox="0 0 603.000000 603.000000"
 preserveAspectRatio="xMidYMid meet">
<metadata>
Created by potrace 1.14, written by Peter Selinger 2001-2017
</metadata>
<g transform="translate(0.000000,603.000000) scale(0.100000,-0.100000)"
fill="#000000" stroke="none">
<path d="M0 3015 l0 -3015 3015 0 3015 0 0 3015 0 3015 -3015 0 -3015 0 0
-3015z m2423 2243 c-174 -186 -309 -441 -376 -713 -30 -124 -32 -456 -3 -580
32 -137 103 -336 217 -608 264 -627 327 -805 373 -1052 53 -283 46 -607 -19
-865 -43 -173 -158 -435 -265 -607 l-45 -72 -812 -1 c-447 0 -813 2 -813 4 0
2 39 50 86 107 400 484 522 994 358 1496 -32 98 -115 299 -254 613 -237 537
-296 721 -330 1039 -49 440 92 894 383 1234 l49 57 750 0 751 0 -50 -52z
m1957 -1658 l0 -1710 625 0 625 0 0 -565 0 -565 -1340 0 -1340 0 0 1148 c0
632 3 1656 7 2275 l6 1127 709 0 708 0 0 -1710z"/>
</g>
</svg>
